<svg xmlns="http://www.w3.org/2000/svg" viewBox="0 0 64 64">
  <rect width="64" height="64" rx="15" fill="#F1FAE4"/>
  <path d="M32 21 V13" stroke="#3E9E52" stroke-width="2.6" stroke-linecap="round"/>
  <path d="M31.5 16.5 C27 10 19.5 10 16 13.5 C20.5 19.5 28 19.5 31.5 16.5Z" fill="#55BD5C"/>
  <path d="M32.5 16.5 C37 10 44.5 10 48 13.5 C43.5 19.5 36 19.5 32.5 16.5Z" fill="#89D96C"/>
  <path d="M32 19 C45.5 19 51.5 28.5 51.5 40 C51.5 51 42.5 56 32 56 C21.5 56 12.5 51 12.5 40 C12.5 28.5 18.5 19 32 19Z" fill="#93D96F"/>
  <path d="M32 33 C40.5 33 45 38 45 44.5 C45 50.5 38.5 54 32 54 C25.5 54 19 50.5 19 44.5 C19 38 23.5 33 32 33Z" fill="#DCF3BC"/>
  <circle cx="25.3" cy="36" r="2.9" fill="#213821"/>
  <circle cx="38.7" cy="36" r="2.9" fill="#213821"/>
  <path d="M26.5 42 Q32 47 37.5 42" stroke="#213821" stroke-width="2.5" fill="none" stroke-linecap="round"/>
</svg>
