<svg viewBox="0 0 580 500" xmlns="http://www.w3.org/2000/svg" role="img" aria-label="Two bands. In the top band, a coordinate plane with one straight line falling to the right. A dashed guide runs along the horizontal axis to the point where the line crosses it at five, then a second dashed guide runs up the vertical axis to where it crosses at three, each crossing marked with a gold dot. Below a near-black rule, two flat pills give the two standard ways of writing a line." font-family="Space Grotesk, sans-serif"><path fill="none" stroke-width="0.024" stroke-linecap="butt" stroke-linejoin="miter" stroke="#e4e9f1" d="M -5.28 0.2 C -1.76 0.2 1.76 0.2 5.28 0.2 " transform="matrix(50, 0, 0, -50, 290, 250)"/>
<path fill="none" stroke-width="0.024" stroke-linecap="butt" stroke-linejoin="miter" stroke="#e4e9f1" d="M -5.28 1.08 C -1.76 1.08 1.76 1.08 5.28 1.08 " transform="matrix(50, 0, 0, -50, 290, 250)"/>
<path fill="none" stroke-width="0.024" stroke-linecap="butt" stroke-linejoin="miter" stroke="#e4e9f1" d="M -5.28 1.96 C -1.76 1.96 1.76 1.96 5.28 1.96 " transform="matrix(50, 0, 0, -50, 290, 250)"/>
<path fill="none" stroke-width="0.024" stroke-linecap="butt" stroke-linejoin="miter" stroke="#e4e9f1" d="M -5.28 2.84 C -1.76 2.84 1.76 2.84 5.28 2.84 " transform="matrix(50, 0, 0, -50, 290, 250)"/>
<path fill="none" stroke-width="0.024" stroke-linecap="butt" stroke-linejoin="miter" stroke="#e4e9f1" d="M -5.28 3.72 C -1.76 3.72 1.76 3.72 5.28 3.72 " transform="matrix(50, 0, 0, -50, 290, 250)"/>
<path fill="none" stroke-width="0.024" stroke-linecap="butt" stroke-linejoin="miter" stroke="#e4e9f1" d="M -5.28 -0.68 C -1.76 -0.68 1.76 -0.68 5.28 -0.68 " transform="matrix(50, 0, 0, -50, 290, 250)"/>
<path fill="none" stroke-width="0.024" stroke-linecap="butt" stroke-linejoin="miter" stroke="#e4e9f1" d="M -5.28 -1.56 C -1.76 -1.56 1.76 -1.56 5.28 -1.56 " transform="matrix(50, 0, 0, -50, 290, 250)"/>
<path fill="none" stroke-width="0.024" stroke-linecap="butt" stroke-linejoin="miter" stroke="#e4e9f1" d="M -1.76 -2.44 C -1.76 -0.0933594 -1.76 2.253359 -1.76 4.6 " transform="matrix(50, 0, 0, -50, 290, 250)"/>
<path fill="none" stroke-width="0.024" stroke-linecap="butt" stroke-linejoin="miter" stroke="#e4e9f1" d="M -0.88 -2.44 C -0.88 -0.0933594 -0.88 2.253359 -0.88 4.6 " transform="matrix(50, 0, 0, -50, 290, 250)"/>
<path fill="none" stroke-width="0.024" stroke-linecap="butt" stroke-linejoin="miter" stroke="#e4e9f1" d="M 0 -2.44 C 0 -0.0933594 0 2.253359 0 4.6 " transform="matrix(50, 0, 0, -50, 290, 250)"/>
<path fill="none" stroke-width="0.024" stroke-linecap="butt" stroke-linejoin="miter" stroke="#e4e9f1" d="M 0.88 -2.44 C 0.88 -0.0933594 0.88 2.253359 0.88 4.6 " transform="matrix(50, 0, 0, -50, 290, 250)"/>
<path fill="none" stroke-width="0.024" stroke-linecap="butt" stroke-linejoin="miter" stroke="#e4e9f1" d="M 1.76 -2.44 C 1.76 -0.0933594 1.76 2.253359 1.76 4.6 " transform="matrix(50, 0, 0, -50, 290, 250)"/>
<path fill="none" stroke-width="0.024" stroke-linecap="butt" stroke-linejoin="miter" stroke="#e4e9f1" d="M 2.64 -2.44 C 2.64 -0.0933594 2.64 2.253359 2.64 4.6 " transform="matrix(50, 0, 0, -50, 290, 250)"/>
<path fill="none" stroke-width="0.024" stroke-linecap="butt" stroke-linejoin="miter" stroke="#e4e9f1" d="M 3.52 -2.44 C 3.52 -0.0933594 3.52 2.253359 3.52 4.6 " transform="matrix(50, 0, 0, -50, 290, 250)"/>
<path fill="none" stroke-width="0.024" stroke-linecap="butt" stroke-linejoin="miter" stroke="#e4e9f1" d="M 4.4 -2.44 C 4.4 -0.0933594 4.4 2.253359 4.4 4.6 " transform="matrix(50, 0, 0, -50, 290, 250)"/>
<path fill="none" stroke-width="0.024" stroke-linecap="butt" stroke-linejoin="miter" stroke="#e4e9f1" d="M -2.64 -2.44 C -2.64 -0.0933594 -2.64 2.253359 -2.64 4.6 " transform="matrix(50, 0, 0, -50, 290, 250)"/>
<path fill="none" stroke-width="0.024" stroke-linecap="butt" stroke-linejoin="miter" stroke="#e4e9f1" d="M -3.52 -2.44 C -3.52 -0.0933594 -3.52 2.253359 -3.52 4.6 " transform="matrix(50, 0, 0, -50, 290, 250)"/>
<path fill="none" stroke-width="0.024" stroke-linecap="butt" stroke-linejoin="miter" stroke="#e4e9f1" d="M -4.4 -2.44 C -4.4 -0.0933594 -4.4 2.253359 -4.4 4.6 " transform="matrix(50, 0, 0, -50, 290, 250)"/>
<path fill="none" stroke-width="0.044" stroke-linecap="butt" stroke-linejoin="miter" stroke="#0e1726" d="M -5.28 0.2 C -1.846641 0.2 1.586641 0.2 5.02 0.2 " transform="matrix(50, 0, 0, -50, 290, 250)"/>
<path fill-rule="nonzero" fill="#0e1726" stroke-width="0.044" stroke-linecap="butt" stroke-linejoin="miter" stroke="#0e1726" d="M 5.28 0.2 C 5.193359 0.236641 5.106641 0.273359 5.02 0.31 C 5.02 0.236641 5.02 0.163359 5.02 0.09 C 5.106641 0.126641 5.193359 0.163359 5.28 0.2 Z M 5.28 0.2 " transform="matrix(50, 0, 0, -50, 290, 250)"/>
<path fill="none" stroke-width="0.044" stroke-linecap="butt" stroke-linejoin="miter" stroke="#0e1726" d="M -1.76 -2.44 C -1.76 -0.18 -1.76 2.08 -1.76 4.34 " transform="matrix(50, 0, 0, -50, 290, 250)"/>
<path fill-rule="nonzero" fill="#0e1726" stroke-width="0.044" stroke-linecap="butt" stroke-linejoin="miter" stroke="#0e1726" d="M -1.76 4.6 C -1.796641 4.513359 -1.833359 4.426641 -1.87 4.34 C -1.796641 4.34 -1.723359 4.34 -1.65 4.34 C -1.686641 4.426641 -1.723359 4.513359 -1.76 4.6 Z M -1.76 4.6 " transform="matrix(50, 0, 0, -50, 290, 250)"/>
<path fill="none" stroke-width="0.06" stroke-linecap="butt" stroke-linejoin="miter" stroke="#2f6fe0" d="M -3.696016 4.001563 C -0.821328 2.276797 2.053359 0.552031 4.927969 -1.172813 " transform="matrix(50, 0, 0, -50, 290, 250)"/>
<path fill="none" stroke-width="0.026" stroke-linecap="butt" stroke-linejoin="miter" stroke="#0e1726" d="M -4.96 -2.48 C -1.653359 -2.48 1.653359 -2.48 4.96 -2.48 " transform="matrix(50, 0, 0, -50, 290, 250)"/>
<path fill-rule="nonzero" fill="#eef4fb" stroke-width="0.026" stroke-linecap="butt" stroke-linejoin="miter" stroke="#0e1726" d="M -0.18 -3.58 C -0.18 -3.403281 -0.323281 -3.26 -0.5 -3.26 C -1.686641 -3.26 -2.873359 -3.26 -4.06 -3.26 C -4.236719 -3.26 -4.38 -3.403281 -4.38 -3.58 C -4.38 -3.753359 -4.38 -3.926641 -4.38 -4.1 C -4.38 -4.276719 -4.236719 -4.42 -4.06 -4.42 C -2.873359 -4.42 -1.686641 -4.42 -0.5 -4.42 C -0.323281 -4.42 -0.18 -4.276719 -0.18 -4.1 C -0.18 -3.926641 -0.18 -3.753359 -0.18 -3.58 Z M -0.18 -3.58 " transform="matrix(50, 0, 0, -50, 290, 250)"/>
<path fill-rule="nonzero" fill="#eef4fb" stroke-width="0.026" stroke-linecap="butt" stroke-linejoin="miter" stroke="#0e1726" d="M 4.38 -3.58 C 4.38 -3.403281 4.236719 -3.26 4.06 -3.26 C 2.873359 -3.26 1.686641 -3.26 0.5 -3.26 C 0.323281 -3.26 0.18 -3.403281 0.18 -3.58 C 0.18 -3.753359 0.18 -3.926641 0.18 -4.1 C 0.18 -4.276719 0.323281 -4.42 0.5 -4.42 C 1.686641 -4.42 2.873359 -4.42 4.06 -4.42 C 4.236719 -4.42 4.38 -4.276719 4.38 -4.1 C 4.38 -3.926641 4.38 -3.753359 4.38 -3.58 Z M 4.38 -3.58 " transform="matrix(50, 0, 0, -50, 290, 250)"/><g stroke-dashoffset="1"><animate attributeName="stroke-dashoffset" values="1;0;0" keyTimes="0;0.4000;1" dur="7.0s" begin="0.0s" repeatCount="indefinite" calcMode="spline" keySplines="0.42 0 0.58 1;0 0 1 1"/><path pathLength="1" stroke-dasharray="1" fill="none" stroke-width="0.044" stroke-linecap="butt" stroke-linejoin="miter" stroke="#f0b429" d="M -1.76 0.2 C -1.721406 0.2 -1.682812 0.2 -1.644219 0.2 " transform="matrix(50, 0, 0, -50, 290, 250)"/>
<path pathLength="1" stroke-dasharray="1" fill="none" stroke-width="0.044" stroke-linecap="butt" stroke-linejoin="miter" stroke="#f0b429" d="M -1.521953 0.2 C -1.483359 0.2 -1.444766 0.2 -1.406172 0.2 " transform="matrix(50, 0, 0, -50, 290, 250)"/>
<path pathLength="1" stroke-dasharray="1" fill="none" stroke-width="0.044" stroke-linecap="butt" stroke-linejoin="miter" stroke="#f0b429" d="M -1.283984 0.2 C -1.245391 0.2 -1.206797 0.2 -1.168203 0.2 " transform="matrix(50, 0, 0, -50, 290, 250)"/>
<path pathLength="1" stroke-dasharray="1" fill="none" stroke-width="0.044" stroke-linecap="butt" stroke-linejoin="miter" stroke="#f0b429" d="M -1.045937 0.2 C -1.007344 0.2 -0.96875 0.2 -0.930156 0.2 " transform="matrix(50, 0, 0, -50, 290, 250)"/>
<path pathLength="1" stroke-dasharray="1" fill="none" stroke-width="0.044" stroke-linecap="butt" stroke-linejoin="miter" stroke="#f0b429" d="M -0.807969 0.2 C -0.769375 0.2 -0.730781 0.2 -0.692187 0.2 " transform="matrix(50, 0, 0, -50, 290, 250)"/>
<path pathLength="1" stroke-dasharray="1" fill="none" stroke-width="0.044" stroke-linecap="butt" stroke-linejoin="miter" stroke="#f0b429" d="M -0.569922 0.2 C -0.531328 0.2 -0.492734 0.2 -0.454141 0.2 " transform="matrix(50, 0, 0, -50, 290, 250)"/>
<path pathLength="1" stroke-dasharray="1" fill="none" stroke-width="0.044" stroke-linecap="butt" stroke-linejoin="miter" stroke="#f0b429" d="M -0.331953 0.2 C -0.293359 0.2 -0.254766 0.2 -0.216172 0.2 " transform="matrix(50, 0, 0, -50, 290, 250)"/>
<path pathLength="1" stroke-dasharray="1" fill="none" stroke-width="0.044" stroke-linecap="butt" stroke-linejoin="miter" stroke="#f0b429" d="M -0.0939062 0.2 C -0.0553125 0.2 -0.0167187 0.2 0.021875 0.2 " transform="matrix(50, 0, 0, -50, 290, 250)"/>
<path pathLength="1" stroke-dasharray="1" fill="none" stroke-width="0.044" stroke-linecap="butt" stroke-linejoin="miter" stroke="#f0b429" d="M 0.144063 0.2 C 0.182656 0.2 0.22125 0.2 0.259922 0.2 " transform="matrix(50, 0, 0, -50, 290, 250)"/>
<path pathLength="1" stroke-dasharray="1" fill="none" stroke-width="0.044" stroke-linecap="butt" stroke-linejoin="miter" stroke="#f0b429" d="M 0.382109 0.2 C 0.420703 0.2 0.459297 0.2 0.497891 0.2 " transform="matrix(50, 0, 0, -50, 290, 250)"/>
<path pathLength="1" stroke-dasharray="1" fill="none" stroke-width="0.044" stroke-linecap="butt" stroke-linejoin="miter" stroke="#f0b429" d="M 0.620078 0.2 C 0.65875 0.2 0.697344 0.2 0.735938 0.2 " transform="matrix(50, 0, 0, -50, 290, 250)"/>
<path pathLength="1" stroke-dasharray="1" fill="none" stroke-width="0.044" stroke-linecap="butt" stroke-linejoin="miter" stroke="#f0b429" d="M 0.858125 0.2 C 0.896719 0.2 0.935313 0.2 0.973906 0.2 " transform="matrix(50, 0, 0, -50, 290, 250)"/>
<path pathLength="1" stroke-dasharray="1" fill="none" stroke-width="0.044" stroke-linecap="butt" stroke-linejoin="miter" stroke="#f0b429" d="M 1.096172 0.2 C 1.134766 0.2 1.173359 0.2 1.211953 0.2 " transform="matrix(50, 0, 0, -50, 290, 250)"/>
<path pathLength="1" stroke-dasharray="1" fill="none" stroke-width="0.044" stroke-linecap="butt" stroke-linejoin="miter" stroke="#f0b429" d="M 1.334141 0.2 C 1.372734 0.2 1.411328 0.2 1.449922 0.2 " transform="matrix(50, 0, 0, -50, 290, 250)"/>
<path pathLength="1" stroke-dasharray="1" fill="none" stroke-width="0.044" stroke-linecap="butt" stroke-linejoin="miter" stroke="#f0b429" d="M 1.572188 0.2 C 1.610781 0.2 1.649375 0.2 1.687969 0.2 " transform="matrix(50, 0, 0, -50, 290, 250)"/>
<path pathLength="1" stroke-dasharray="1" fill="none" stroke-width="0.044" stroke-linecap="butt" stroke-linejoin="miter" stroke="#f0b429" d="M 1.810156 0.2 C 1.84875 0.2 1.887344 0.2 1.925938 0.2 " transform="matrix(50, 0, 0, -50, 290, 250)"/>
<path pathLength="1" stroke-dasharray="1" fill="none" stroke-width="0.044" stroke-linecap="butt" stroke-linejoin="miter" stroke="#f0b429" d="M 2.048203 0.2 C 2.086797 0.2 2.125391 0.2 2.163984 0.2 " transform="matrix(50, 0, 0, -50, 290, 250)"/>
<path pathLength="1" stroke-dasharray="1" fill="none" stroke-width="0.044" stroke-linecap="butt" stroke-linejoin="miter" stroke="#f0b429" d="M 2.286172 0.2 C 2.324766 0.2 2.363359 0.2 2.401953 0.2 " transform="matrix(50, 0, 0, -50, 290, 250)"/>
<path pathLength="1" stroke-dasharray="1" fill="none" stroke-width="0.044" stroke-linecap="butt" stroke-linejoin="miter" stroke="#f0b429" d="M 2.524219 0.2 C 2.562813 0.2 2.601406 0.2 2.64 0.2 " transform="matrix(50, 0, 0, -50, 290, 250)"/></g><g opacity="0"><animate attributeName="opacity" values="0;0;1;1" keyTimes="0;0.4000;0.4600;1" dur="7.0s" begin="0.0s" repeatCount="indefinite"/><text x="422.0" y="266.0" font-size="12" font-weight="700" fill="#8a5a08" text-anchor="middle" dominant-baseline="middle">y = 0 here</text></g><g stroke-dashoffset="1"><animate attributeName="stroke-dashoffset" values="1;0;0" keyTimes="0;0.4000;1" dur="7.0s" begin="2.8000000000000003s" repeatCount="indefinite" calcMode="spline" keySplines="0.42 0 0.58 1;0 0 1 1"/><path pathLength="1" stroke-dasharray="1" fill="none" stroke-width="0.044" stroke-linecap="butt" stroke-linejoin="miter" stroke="#f0b429" d="M -1.76 0.2 C -1.76 0.24 -1.76 0.28 -1.76 0.32 " transform="matrix(50, 0, 0, -50, 290, 250)"/>
<path pathLength="1" stroke-dasharray="1" fill="none" stroke-width="0.044" stroke-linecap="butt" stroke-linejoin="miter" stroke="#f0b429" d="M -1.76 0.452031 C -1.76 0.492031 -1.76 0.532031 -1.76 0.572031 " transform="matrix(50, 0, 0, -50, 290, 250)"/>
<path pathLength="1" stroke-dasharray="1" fill="none" stroke-width="0.044" stroke-linecap="butt" stroke-linejoin="miter" stroke="#f0b429" d="M -1.76 0.703984 C -1.76 0.743984 -1.76 0.783984 -1.76 0.823984 " transform="matrix(50, 0, 0, -50, 290, 250)"/>
<path pathLength="1" stroke-dasharray="1" fill="none" stroke-width="0.044" stroke-linecap="butt" stroke-linejoin="miter" stroke="#f0b429" d="M -1.76 0.956016 C -1.76 0.996016 -1.76 1.036016 -1.76 1.076016 " transform="matrix(50, 0, 0, -50, 290, 250)"/>
<path pathLength="1" stroke-dasharray="1" fill="none" stroke-width="0.044" stroke-linecap="butt" stroke-linejoin="miter" stroke="#f0b429" d="M -1.76 1.207969 C -1.76 1.247969 -1.76 1.287969 -1.76 1.327969 " transform="matrix(50, 0, 0, -50, 290, 250)"/>
<path pathLength="1" stroke-dasharray="1" fill="none" stroke-width="0.044" stroke-linecap="butt" stroke-linejoin="miter" stroke="#f0b429" d="M -1.76 1.46 C -1.76 1.5 -1.76 1.54 -1.76 1.58 " transform="matrix(50, 0, 0, -50, 290, 250)"/>
<path pathLength="1" stroke-dasharray="1" fill="none" stroke-width="0.044" stroke-linecap="butt" stroke-linejoin="miter" stroke="#f0b429" d="M -1.76 1.712031 C -1.76 1.752031 -1.76 1.792031 -1.76 1.832031 " transform="matrix(50, 0, 0, -50, 290, 250)"/>
<path pathLength="1" stroke-dasharray="1" fill="none" stroke-width="0.044" stroke-linecap="butt" stroke-linejoin="miter" stroke="#f0b429" d="M -1.76 1.963984 C -1.76 2.003984 -1.76 2.043984 -1.76 2.083984 " transform="matrix(50, 0, 0, -50, 290, 250)"/>
<path pathLength="1" stroke-dasharray="1" fill="none" stroke-width="0.044" stroke-linecap="butt" stroke-linejoin="miter" stroke="#f0b429" d="M -1.76 2.216016 C -1.76 2.256016 -1.76 2.296016 -1.76 2.336016 " transform="matrix(50, 0, 0, -50, 290, 250)"/>
<path pathLength="1" stroke-dasharray="1" fill="none" stroke-width="0.044" stroke-linecap="butt" stroke-linejoin="miter" stroke="#f0b429" d="M -1.76 2.467969 C -1.76 2.507969 -1.76 2.547969 -1.76 2.587969 " transform="matrix(50, 0, 0, -50, 290, 250)"/>
<path pathLength="1" stroke-dasharray="1" fill="none" stroke-width="0.044" stroke-linecap="butt" stroke-linejoin="miter" stroke="#f0b429" d="M -1.76 2.72 C -1.76 2.76 -1.76 2.8 -1.76 2.84 " transform="matrix(50, 0, 0, -50, 290, 250)"/></g><g opacity="0"><animate attributeName="opacity" values="0;0;1;1" keyTimes="0;0.4000;0.4600;1" dur="7.0s" begin="2.8000000000000003s" repeatCount="indefinite"/><text x="216.0" y="108.0" font-size="12" font-weight="700" fill="#8a5a08" text-anchor="start" dominant-baseline="middle">x = 0 here</text></g><g stroke-dashoffset="1"><animate attributeName="stroke-dashoffset" values="1;0;0" keyTimes="0;0.0400;1" dur="7.0s" begin="2.8000000000000003s" repeatCount="indefinite" calcMode="spline" keySplines="0.42 0 0.58 1;0 0 1 1"/><path pathLength="1" stroke-dasharray="1" fill-rule="nonzero" fill="#0e1726" d="M 428.75 240 C 428.75 238.210938 428.039062 236.492188 426.773438 235.226562 C 425.507812 233.960938 423.789062 233.25 422 233.25 C 420.210938 233.25 418.492188 233.960938 417.226562 235.226562 C 415.960938 236.492188 415.25 238.210938 415.25 240 C 415.25 241.789062 415.960938 243.507812 417.226562 244.773438 C 418.492188 246.039062 420.210938 246.75 422 246.75 C 423.789062 246.75 425.507812 246.039062 426.773438 244.773438 C 428.039062 243.507812 428.75 241.789062 428.75 240 Z M 428.75 240 "/>
<path pathLength="1" stroke-dasharray="1" fill-rule="nonzero" fill="#f0b429" d="M 427.25 240 C 427.25 238.609375 426.695312 237.273438 425.710938 236.289062 C 424.726562 235.304688 423.390625 234.75 422 234.75 C 420.609375 234.75 419.273438 235.304688 418.289062 236.289062 C 417.304688 237.273438 416.75 238.609375 416.75 240 C 416.75 241.390625 417.304688 242.726562 418.289062 243.710938 C 419.273438 244.695312 420.609375 245.25 422 245.25 C 423.390625 245.25 424.726562 244.695312 425.710938 243.710938 C 426.695312 242.726562 427.25 241.390625 427.25 240 Z M 427.25 240 "/></g><g stroke-dashoffset="1"><animate attributeName="stroke-dashoffset" values="1;0;0" keyTimes="0;0.0400;1" dur="7.0s" begin="5.6000000000000005s" repeatCount="indefinite" calcMode="spline" keySplines="0.42 0 0.58 1;0 0 1 1"/><path pathLength="1" stroke-dasharray="1" fill-rule="nonzero" fill="#0e1726" d="M 208.75 108 C 208.75 106.210938 208.039062 104.492188 206.773438 103.226562 C 205.507812 101.960938 203.789062 101.25 202 101.25 C 200.210938 101.25 198.492188 101.960938 197.226562 103.226562 C 195.960938 104.492188 195.25 106.210938 195.25 108 C 195.25 109.789062 195.960938 111.507812 197.226562 112.773438 C 198.492188 114.039062 200.210938 114.75 202 114.75 C 203.789062 114.75 205.507812 114.039062 206.773438 112.773438 C 208.039062 111.507812 208.75 109.789062 208.75 108 Z M 208.75 108 "/>
<path pathLength="1" stroke-dasharray="1" fill-rule="nonzero" fill="#f0b429" d="M 207.25 108 C 207.25 106.609375 206.695312 105.273438 205.710938 104.289062 C 204.726562 103.304688 203.390625 102.75 202 102.75 C 200.609375 102.75 199.273438 103.304688 198.289062 104.289062 C 197.304688 105.273438 196.75 106.609375 196.75 108 C 196.75 109.390625 197.304688 110.726562 198.289062 111.710938 C 199.273438 112.695312 200.609375 113.25 202 113.25 C 203.390625 113.25 204.726562 112.695312 205.710938 111.710938 C 206.695312 110.726562 207.25 109.390625 207.25 108 Z M 207.25 108 "/></g><text x="42.0" y="24.0" font-size="13" font-weight="700" fill="#0e1726" text-anchor="start" dominant-baseline="middle">where it meets each axis</text><text x="561.0" y="255.0" font-size="16" font-weight="700" fill="#0e1726" text-anchor="middle" dominant-baseline="middle" font-style="italic">x</text><text x="188.0" y="16.0" font-size="16" font-weight="700" fill="#0e1726" text-anchor="middle" dominant-baseline="middle" font-style="italic">y</text><text x="42.0" y="392.0" font-size="13" font-weight="700" fill="#0e1726" text-anchor="start" dominant-baseline="middle">two ways to write the same line</text><text x="176.0" y="442.0" font-size="18" font-weight="700" fill="#2257c5" text-anchor="middle" dominant-baseline="middle" font-style="italic">y = mx + b</text><text x="404.0" y="442.0" font-size="18" font-weight="700" fill="#2257c5" text-anchor="middle" dominant-baseline="middle" font-style="italic">Ax + By = C</text></svg>